<svg width="19" height="17" viewBox="0 0 19 17" fill="none" xmlns="http://www.w3.org/2000/svg">
<path d="M9.50089 3.95324L8.13651 2.55662L8.13594 2.55605C7.78804 2.20177 7.37304 1.92037 6.91517 1.72827C6.45731 1.53617 5.96575 1.43723 5.46922 1.43723C4.97269 1.43723 4.48113 1.53617 4.02326 1.72827C3.56544 1.92035 3.15047 2.20172 2.8026 2.55595C2.08865 3.28087 1.68846 4.25752 1.68846 5.275C1.68846 6.29259 2.08874 7.26935 2.80284 7.9943L2.80313 7.99459L9.27812 14.5508L9.50047 14.776L9.72281 14.5508L16.1978 7.99459L16.1981 7.9943C16.9122 7.26935 17.3125 6.29259 17.3125 5.275C17.3125 4.25753 16.9123 3.28088 16.1983 2.55595C15.8506 2.20148 15.4357 1.91997 14.9778 1.72791C14.52 1.53591 14.0286 1.43718 13.5322 1.4375C13.5319 1.4375 13.5317 1.4375 13.5315 1.4375L13.5317 1.75M9.50089 3.95324L10.8578 2.56949L10.8586 2.5687L11.0817 2.7875M9.50089 3.95324L10.857 2.57036M9.50089 3.95324L10.857 2.57036M13.5317 1.75C13.0746 1.74935 12.622 1.84089 12.201 2.01915C11.7801 2.19741 11.3994 2.45874 11.0817 2.7875M13.5317 1.75C13.9868 1.74962 14.4373 1.84008 14.8569 2.01609C15.2766 2.1921 15.6569 2.45011 15.9755 2.775L13.5317 1.75ZM11.0817 2.7875L10.857 2.57036M11.0817 2.7875L10.857 2.57036M13.5316 0.812502L13.5315 0.812502C12.9516 0.81201 12.3774 0.927301 11.8427 1.15161C11.3079 1.37593 10.8233 1.70475 10.4173 2.11879L10.4162 2.11998L9.72243 2.81998L9.50047 3.04394L9.27851 2.81998L8.58476 2.11998L8.58392 2.11913C8.17735 1.70575 7.69255 1.37744 7.1578 1.15333C6.62305 0.929228 6.04903 0.813811 5.46922 0.813811C4.88941 0.813811 4.31539 0.929228 3.78064 1.15333C3.2459 1.37744 2.76111 1.70574 2.35454 2.1191L13.5316 0.812502ZM13.5316 0.812502C14.1115 0.812661 14.6856 0.92827 15.2204 1.15259C15.7551 1.37691 16.2399 1.70544 16.6463 2.11904C17.4752 2.96287 17.9397 4.09841 17.9397 5.28125C17.9397 6.46391 17.4754 7.59929 16.6467 8.44307C16.6466 8.44322 16.6464 8.44336 16.6463 8.44351L9.50047 15.6802M13.5316 0.812502L9.50047 15.6802M9.50047 15.6802L2.35465 8.44351C2.35454 8.4434 2.35444 8.44329 2.35433 8.44318C1.52561 7.59939 1.06128 6.46396 1.06128 5.28125C1.06128 4.09846 1.52568 2.96295 2.35452 2.11913L9.50047 15.6802Z" fill="#BDBDBD" stroke="#252B42" stroke-width="0.625"/>
</svg>
