<svg width="23" height="23" viewBox="0 0 23 23" fill="none" xmlns="http://www.w3.org/2000/svg">
<path d="M11.5 0.5C8.51488 0.5 8.1395 0.51375 6.96663 0.566C5.79375 0.621 4.99487 0.80525 4.295 1.0775C3.56088 1.35363 2.89593 1.78676 2.34663 2.34663C1.7871 2.89621 1.35402 3.56108 1.0775 4.295C0.80525 4.9935 0.619625 5.79375 0.566 6.9625C0.51375 8.13812 0.5 8.51213 0.5 11.5014C0.5 14.4879 0.51375 14.8619 0.566 16.0347C0.621 17.2063 0.80525 18.0051 1.0775 18.705C1.35938 19.4282 1.73475 20.0415 2.34663 20.6534C2.95713 21.2652 3.57037 21.642 4.29363 21.9225C4.99487 22.1947 5.79238 22.3804 6.96388 22.434C8.13813 22.4862 8.51213 22.5 11.5 22.5C14.4879 22.5 14.8605 22.4862 16.0347 22.434C17.2049 22.379 18.0065 22.1947 18.7064 21.9225C19.44 21.6462 20.1045 21.2131 20.6534 20.6534C21.2652 20.0415 21.6406 19.4282 21.9225 18.705C22.1934 18.0051 22.379 17.2063 22.434 16.0347C22.4862 14.8619 22.5 14.4879 22.5 11.5C22.5 8.51213 22.4862 8.13813 22.434 6.96388C22.379 5.79375 22.1934 4.9935 21.9225 4.295C21.646 3.56106 21.2129 2.89618 20.6534 2.34663C20.1042 1.78655 19.4392 1.35339 18.705 1.0775C18.0037 0.80525 17.2035 0.619625 16.0334 0.566C14.8591 0.51375 14.4865 0.5 11.4973 0.5H11.5014H11.5ZM10.5141 2.48275H11.5014C14.4384 2.48275 14.7863 2.49238 15.9454 2.546C17.0179 2.59413 17.6009 2.77425 17.9886 2.92412C18.5015 3.1235 18.8686 3.36275 19.2536 3.74775C19.6386 4.13275 19.8765 4.4985 20.0759 5.01275C20.2271 5.39913 20.4059 5.98213 20.454 7.05463C20.5076 8.21375 20.5186 8.56163 20.5186 11.4973C20.5186 14.4329 20.5076 14.7821 20.454 15.9412C20.4059 17.0138 20.2257 17.5954 20.0759 17.9831C19.8995 18.4607 19.618 18.8926 19.2522 19.2467C18.8672 19.6318 18.5015 19.8696 17.9873 20.069C17.6023 20.2203 17.0192 20.399 15.9454 20.4485C14.7863 20.5007 14.4384 20.5131 11.5014 20.5131C8.56438 20.5131 8.21513 20.5007 7.056 20.4485C5.9835 20.399 5.40188 20.2203 5.01412 20.069C4.53631 19.8929 4.10405 19.6119 3.74913 19.2467C3.38303 18.892 3.10112 18.4598 2.92412 17.9818C2.77425 17.5954 2.59413 17.0124 2.546 15.9399C2.49375 14.7808 2.48275 14.4329 2.48275 11.4945C2.48275 8.5575 2.49375 8.211 2.546 7.05187C2.5955 5.97937 2.77425 5.39638 2.9255 5.00863C3.12488 4.49575 3.36412 4.12862 3.74913 3.74362C4.13412 3.35862 4.49988 3.12075 5.01412 2.92138C5.40188 2.77013 5.9835 2.59138 7.056 2.54188C8.07075 2.49513 8.464 2.48138 10.5141 2.48V2.48275ZM17.3726 4.30875C17.1993 4.30875 17.0276 4.34289 16.8675 4.40923C16.7073 4.47557 16.5618 4.5728 16.4392 4.69537C16.3167 4.81794 16.2194 4.96346 16.1531 5.12361C16.0868 5.28376 16.0526 5.45541 16.0526 5.62875C16.0526 5.80209 16.0868 5.97374 16.1531 6.13389C16.2194 6.29404 16.3167 6.43956 16.4392 6.56213C16.5618 6.6847 16.7073 6.78193 16.8675 6.84827C17.0276 6.91461 17.1993 6.94875 17.3726 6.94875C17.7227 6.94875 18.0585 6.80968 18.306 6.56213C18.5536 6.31458 18.6926 5.97884 18.6926 5.62875C18.6926 5.27866 18.5536 4.94292 18.306 4.69537C18.0585 4.44782 17.7227 4.30875 17.3726 4.30875ZM11.5014 5.8515C10.7521 5.83981 10.008 5.97729 9.31234 6.25594C8.61671 6.5346 7.98346 6.94885 7.44946 7.47458C6.91546 8.00032 6.49138 8.62703 6.20191 9.31823C5.91244 10.0094 5.76336 10.7513 5.76336 11.5007C5.76336 12.2501 5.91244 12.9919 6.20191 13.6831C6.49138 14.3743 6.91546 15.0011 7.44946 15.5268C7.98346 16.0525 8.61671 16.4668 9.31234 16.7454C10.008 17.0241 10.7521 17.1616 11.5014 17.1499C12.9844 17.1267 14.3988 16.5214 15.4393 15.4645C16.4799 14.4076 17.0631 12.9839 17.0631 11.5007C17.0631 10.0175 16.4799 8.59382 15.4393 7.53691C14.3988 6.47999 12.9844 5.87464 11.5014 5.8515ZM11.5014 7.83288C12.474 7.83288 13.4067 8.21923 14.0944 8.90695C14.7821 9.59467 15.1685 10.5274 15.1685 11.5C15.1685 12.4726 14.7821 13.4053 14.0944 14.093C13.4067 14.7808 12.474 15.1671 11.5014 15.1671C10.5288 15.1671 9.59605 14.7808 8.90833 14.093C8.22061 13.4053 7.83425 12.4726 7.83425 11.5C7.83425 10.5274 8.22061 9.59467 8.90833 8.90695C9.59605 8.21923 10.5288 7.83288 11.5014 7.83288Z" fill="#23A6F0"/>
</svg>
