<svg width="23" height="19" viewBox="0 0 23 19" fill="none" xmlns="http://www.w3.org/2000/svg">
<path d="M7.41075 18.5C15.713 18.5 20.2546 11.5731 20.2546 5.57669C20.2546 5.38285 20.2546 5.18625 20.2464 4.99241C21.1306 4.34789 21.8937 3.54993 22.5 2.63592C21.6741 3.00262 20.7988 3.2443 19.9026 3.35312C20.8466 2.78495 21.5536 1.891 21.8923 0.837403C21.0054 1.36647 20.0346 1.73787 19.0226 1.93534C18.3423 1.20572 17.4419 0.722372 16.4611 0.560159C15.4803 0.397946 14.4737 0.565924 13.5973 1.03807C12.7209 1.51023 12.0236 2.2602 11.6134 3.17182C11.2031 4.08345 11.1029 5.10585 11.3281 6.08066C9.53339 5.99005 7.77762 5.52057 6.17468 4.70269C4.57175 3.8848 3.15744 2.73678 2.0235 1.33307C1.44784 2.33421 1.27216 3.51843 1.53214 4.64526C1.79211 5.77209 2.46825 6.75705 3.42325 7.40013C2.70762 7.37565 2.00772 7.18215 1.38 6.83524V6.89754C1.38123 7.94631 1.74205 8.96247 2.40145 9.77429C3.06086 10.5861 3.9784 11.1438 4.999 11.353C4.61161 11.4605 4.21144 11.514 3.80963 11.5122C3.52635 11.5131 3.24365 11.4867 2.96537 11.4333C3.25383 12.3361 3.8155 13.1254 4.57171 13.6908C5.32793 14.2561 6.24081 14.5691 7.1825 14.5859C5.58276 15.8511 3.60668 16.5373 1.5725 16.534C1.21407 16.5355 0.855882 16.5147 0.5 16.4716C2.56458 17.797 4.96228 18.5008 7.41075 18.5Z" fill="#23A6F0"/>
</svg>
